<?xml version="1.0" encoding="utf-8"?>
<!-- Generator: Adobe Illustrator 28.4.1, SVG Export Plug-In . SVG Version: 6.00 Build 0)  -->
<svg version="1.1" id="Слой_1" xmlns="http://www.w3.org/2000/svg" xmlns:xlink="http://www.w3.org/1999/xlink" x="0px" y="0px"
	 viewBox="0 0 104.06 13.16" style="enable-background:new 0 0 104.06 13.16;" xml:space="preserve">
<style type="text/css">
	.st0{fill:#FF0000;}
</style>
<g>
	<path class="st0" d="M3.84,2.61l0.47,1.92l-1.64,5.99C2.62,10.69,2.6,10.85,2.6,11c0,0.39,0.18,0.67,0.55,0.83l0.32,0.15
		c0.2,0.09,0.31,0.25,0.31,0.46c0,0.31-0.23,0.46-0.68,0.46H0.74c-0.23,0-0.41-0.05-0.54-0.14C0.07,12.67,0,12.54,0,12.38
		c0-0.18,0.14-0.33,0.41-0.45c0.25-0.11,0.44-0.21,0.56-0.3c0.12-0.09,0.24-0.21,0.35-0.37c0.17-0.25,0.32-0.59,0.43-1.01L3.84,2.61
		z M4.48,0.25h3.74l2.58,10.9c0.05,0.19,0.1,0.36,0.17,0.51c0.06,0.12,0.18,0.21,0.37,0.29c0.16,0.07,0.27,0.14,0.33,0.2
		c0.06,0.07,0.09,0.16,0.09,0.28c0,0.32-0.24,0.48-0.72,0.48H6.41c-0.19,0-0.33-0.04-0.45-0.13c-0.11-0.09-0.17-0.21-0.17-0.36
		c0-0.12,0.02-0.22,0.07-0.28c0.05-0.06,0.16-0.14,0.33-0.23c0.12-0.06,0.21-0.13,0.26-0.2c0.05-0.07,0.07-0.17,0.07-0.28
		c0-0.1-0.01-0.2-0.03-0.28l-0.3-1.35H3.63l0.25-1.1h2.08L4.25,1.16L4.48,0.25z"/>
	<path d="M13.95,3.51l0.98,1.63v4.97c0,0.43,0.07,0.79,0.22,1.07c0.15,0.28,0.38,0.51,0.69,0.69l0.28,0.16
		c0.16,0.09,0.24,0.23,0.24,0.42c0,0.14-0.06,0.26-0.18,0.35c-0.1,0.08-0.3,0.12-0.61,0.12h-2.14c-0.56,0-0.84-0.16-0.84-0.48
		c0-0.11,0.03-0.2,0.09-0.26c0.06-0.06,0.19-0.15,0.39-0.26c0.59-0.33,0.89-0.92,0.89-1.79V3.51z M17.83,0.25l4.94,8.57v4.09h-2.53
		l-6.3-10.85c-0.14-0.23-0.25-0.4-0.33-0.49c-0.09-0.09-0.2-0.16-0.33-0.2l-0.35-0.13c-0.09-0.03-0.17-0.09-0.22-0.17
		c-0.06-0.08-0.08-0.17-0.08-0.27c0-0.1,0.03-0.2,0.08-0.29c0.06-0.09,0.13-0.15,0.22-0.19c0.1-0.04,0.39-0.06,0.85-0.06H17.83z
		 M22.77,7.34l-0.98-1.66V3.11c0-0.52-0.08-0.92-0.23-1.19c-0.15-0.28-0.42-0.51-0.8-0.71c-0.13-0.06-0.22-0.13-0.27-0.2
		c-0.05-0.07-0.07-0.16-0.07-0.27c0-0.17,0.05-0.29,0.16-0.37c0.11-0.08,0.28-0.12,0.52-0.12h2.32c0.32,0,0.52,0.05,0.62,0.15
		c0.1,0.1,0.16,0.22,0.16,0.35c0,0.13-0.03,0.23-0.09,0.29c-0.06,0.06-0.2,0.15-0.42,0.26c-0.33,0.17-0.58,0.42-0.74,0.77
		c-0.12,0.25-0.18,0.6-0.18,1.03V7.34z"/>
	<path d="M25.01,0.25h2.44v1.12c-0.29,0.17-0.52,0.38-0.68,0.64c-0.27,0.42-0.45,0.92-0.54,1.49l-0.09,0.57
		c-0.03,0.18-0.1,0.32-0.2,0.42c-0.1,0.1-0.23,0.15-0.38,0.15c-0.16,0-0.29-0.06-0.39-0.17c-0.1-0.11-0.15-0.26-0.15-0.44V0.25z
		 M32.32,0.25v10.9c0,0.24,0.05,0.41,0.14,0.52c0.05,0.06,0.1,0.1,0.14,0.12c0.04,0.02,0.19,0.05,0.43,0.12
		c0.3,0.07,0.45,0.24,0.45,0.51c0,0.16-0.08,0.29-0.24,0.39c-0.12,0.07-0.32,0.11-0.59,0.11h-0.31H28.2h-0.31
		c-0.27,0-0.48-0.04-0.62-0.12c-0.14-0.08-0.21-0.21-0.21-0.38c0-0.27,0.15-0.44,0.45-0.51c0.24-0.06,0.38-0.1,0.43-0.12
		c0.04-0.02,0.09-0.05,0.13-0.12c0.09-0.1,0.14-0.28,0.14-0.52V0.25H32.32z M35.53,0.25v3.79c0,0.18-0.05,0.32-0.15,0.44
		c-0.1,0.11-0.23,0.17-0.39,0.17c-0.15,0-0.28-0.05-0.38-0.15c-0.1-0.1-0.17-0.24-0.2-0.42l-0.09-0.57
		c-0.09-0.58-0.27-1.07-0.54-1.49c-0.17-0.26-0.39-0.47-0.68-0.64V0.25H35.53z"/>
	<path d="M41.61,1c-0.32,0.11-0.54,0.26-0.67,0.45c-0.13,0.19-0.19,0.47-0.19,0.84v8.29c0,0.54,0.07,0.93,0.22,1.15
		c0.12,0.19,0.33,0.32,0.64,0.4v1.02c-1.37-0.11-2.52-0.63-3.45-1.55c-1.21-1.2-1.81-2.87-1.81-5.02c0-1.08,0.16-2.05,0.48-2.92
		c0.32-0.87,0.79-1.61,1.41-2.21c0.48-0.46,0.99-0.82,1.54-1.06c0.55-0.24,1.16-0.38,1.83-0.41V1z M42.37,1V0
		c0.67,0.03,1.28,0.17,1.83,0.41c0.55,0.24,1.07,0.59,1.54,1.06c1.26,1.23,1.89,2.94,1.89,5.13c0,2.15-0.6,3.82-1.81,5.02
		c-0.93,0.93-2.08,1.44-3.46,1.55v-1.02c0.16-0.04,0.29-0.08,0.38-0.14c0.09-0.06,0.17-0.14,0.25-0.25
		c0.17-0.25,0.25-0.64,0.25-1.15V2.3c0-0.33-0.06-0.59-0.17-0.78C43,1.39,42.92,1.29,42.81,1.22C42.71,1.14,42.56,1.07,42.37,1z"/>
	<path d="M50.21,3.51l0.98,1.63v4.97c0,0.43,0.07,0.79,0.22,1.07c0.15,0.28,0.38,0.51,0.69,0.69l0.28,0.16
		c0.16,0.09,0.24,0.23,0.24,0.42c0,0.14-0.06,0.26-0.18,0.35c-0.1,0.08-0.3,0.12-0.61,0.12h-2.14c-0.56,0-0.84-0.16-0.84-0.48
		c0-0.11,0.03-0.2,0.09-0.26c0.06-0.06,0.19-0.15,0.39-0.26c0.59-0.33,0.89-0.92,0.89-1.79V3.51z M54.09,0.25l4.94,8.57v4.09H56.5
		L50.2,2.06c-0.14-0.23-0.25-0.4-0.33-0.49c-0.09-0.09-0.2-0.16-0.33-0.2l-0.35-0.13c-0.09-0.03-0.17-0.09-0.22-0.17
		C48.9,0.99,48.87,0.9,48.87,0.8c0-0.1,0.03-0.2,0.08-0.29c0.06-0.09,0.13-0.15,0.22-0.19c0.1-0.04,0.39-0.06,0.85-0.06H54.09z
		 M59.03,7.34l-0.98-1.66V3.11c0-0.52-0.08-0.92-0.23-1.19c-0.15-0.28-0.42-0.51-0.8-0.71c-0.13-0.06-0.22-0.13-0.27-0.2
		c-0.05-0.07-0.07-0.16-0.07-0.27c0-0.17,0.05-0.29,0.16-0.37c0.11-0.08,0.28-0.12,0.52-0.12h2.32c0.32,0,0.52,0.05,0.62,0.15
		c0.1,0.1,0.16,0.22,0.16,0.35c0,0.13-0.03,0.23-0.09,0.29c-0.06,0.06-0.2,0.15-0.42,0.26c-0.33,0.17-0.58,0.42-0.74,0.77
		c-0.12,0.25-0.18,0.6-0.18,1.03V7.34z"/>
	<path d="M68.51,7.11v4.04c0,0.24,0.05,0.41,0.14,0.52c0.05,0.06,0.1,0.1,0.14,0.12c0.04,0.02,0.19,0.05,0.43,0.12
		c0.3,0.07,0.45,0.24,0.45,0.51c0,0.18-0.08,0.32-0.25,0.41c-0.1,0.06-0.29,0.09-0.58,0.09h-0.32h-4.14h-0.31
		c-0.28,0-0.47-0.04-0.58-0.11c-0.16-0.1-0.24-0.23-0.24-0.39c0-0.27,0.15-0.44,0.45-0.51c0.24-0.06,0.38-0.1,0.43-0.12
		c0.04-0.02,0.09-0.05,0.13-0.12c0.09-0.1,0.14-0.28,0.14-0.52V8.02l-2.63-6.26c-0.1-0.23-0.24-0.4-0.42-0.51
		c-0.17-0.1-0.27-0.19-0.32-0.25c-0.05-0.06-0.07-0.15-0.07-0.26c0-0.32,0.23-0.48,0.71-0.48h4.55c0.24,0,0.41,0.03,0.5,0.08
		c0.15,0.1,0.23,0.23,0.23,0.39c0,0.2-0.09,0.35-0.27,0.46L66.4,1.35c-0.11,0.07-0.16,0.17-0.16,0.31c0,0.15,0.03,0.31,0.1,0.45
		L68.51,7.11z M68.87,6.23l-0.52-1.22l0.97-2.18c0.08-0.19,0.12-0.44,0.12-0.76c0-0.36-0.2-0.62-0.59-0.77
		c-0.22-0.09-0.36-0.16-0.42-0.23c-0.07-0.06-0.1-0.17-0.1-0.3c0-0.17,0.06-0.29,0.17-0.38c0.07-0.06,0.16-0.09,0.25-0.11
		s0.25-0.03,0.48-0.03h2.29c0.43,0,0.65,0.17,0.65,0.52c0,0.12-0.03,0.22-0.09,0.29c-0.06,0.07-0.17,0.14-0.34,0.21
		c-0.3,0.14-0.52,0.27-0.65,0.41c-0.19,0.2-0.34,0.42-0.46,0.68l-0.21,0.47L68.87,6.23z"/>
	<path d="M75.37,9.56c0.49,0,0.92,0.18,1.27,0.53s0.53,0.78,0.53,1.27c0,0.5-0.18,0.93-0.53,1.28s-0.78,0.53-1.27,0.53
		c-0.5,0-0.93-0.18-1.28-0.53s-0.53-0.78-0.53-1.28c0-0.49,0.18-0.92,0.53-1.27S74.87,9.56,75.37,9.56z"/>
	<path d="M84.31,0.25v10.9c0,0.24,0.05,0.41,0.14,0.52c0.05,0.06,0.1,0.1,0.14,0.12c0.04,0.02,0.19,0.05,0.43,0.12
		c0.3,0.07,0.45,0.24,0.45,0.51c0,0.16-0.08,0.29-0.24,0.39c-0.12,0.07-0.31,0.11-0.58,0.11h-0.32h-4.14h-0.24
		c-0.22,0-0.39-0.04-0.52-0.12c-0.12-0.08-0.18-0.2-0.18-0.36c0-0.25,0.12-0.42,0.37-0.5c0.2-0.07,0.32-0.11,0.36-0.12
		c0.03-0.02,0.07-0.05,0.11-0.11c0.07-0.1,0.11-0.26,0.11-0.47V1.94c0-0.22-0.04-0.37-0.11-0.47c-0.04-0.06-0.07-0.09-0.11-0.11
		c-0.03-0.02-0.15-0.06-0.36-0.13c-0.25-0.08-0.37-0.25-0.37-0.5c0-0.15,0.06-0.27,0.18-0.36c0.12-0.08,0.29-0.13,0.52-0.13h0.24
		H84.31z M87.16,6.71c0.57,0.09,1.01,0.18,1.31,0.29c0.31,0.11,0.58,0.25,0.83,0.43c0.26,0.19,0.46,0.42,0.6,0.69
		c0.14,0.27,0.21,0.55,0.21,0.84v1.92c0,0.2,0.06,0.3,0.19,0.3c0.05,0,0.09-0.01,0.12-0.04c0.03-0.03,0.08-0.08,0.14-0.16
		c0.15-0.21,0.31-0.32,0.47-0.32c0.1,0,0.21,0.06,0.32,0.17c0.1,0.11,0.16,0.22,0.16,0.33c0,0.19-0.09,0.43-0.27,0.7
		c-0.18,0.28-0.41,0.52-0.68,0.74c-0.25,0.2-0.53,0.35-0.83,0.44c-0.3,0.09-0.65,0.13-1.05,0.13c-0.82,0-1.45-0.23-1.91-0.7
		c-0.46-0.47-0.69-1.12-0.69-1.95V8.95c0-0.35,0-0.55-0.01-0.6c-0.03-0.25-0.12-0.46-0.26-0.64c-0.18-0.22-0.44-0.34-0.77-0.38V6.34
		c0.33-0.05,0.57-0.14,0.71-0.26c0.12-0.11,0.21-0.24,0.26-0.38c0.05-0.14,0.07-0.35,0.07-0.63V2.61c0-0.39-0.08-0.68-0.23-0.87
		c-0.15-0.19-0.43-0.34-0.82-0.45V0.25h0.24c0.69,0,1.27,0.02,1.75,0.07c0.72,0.07,1.36,0.3,1.92,0.71c0.81,0.58,1.22,1.4,1.22,2.46
		c0,0.87-0.27,1.59-0.82,2.14c-0.23,0.24-0.5,0.43-0.8,0.58C88.25,6.35,87.79,6.52,87.16,6.71z"/>
	<path d="M93.38,9.21V1.94c0-0.22-0.04-0.37-0.11-0.47c-0.04-0.06-0.07-0.09-0.11-0.11c-0.03-0.02-0.15-0.06-0.36-0.13
		c-0.25-0.08-0.37-0.24-0.37-0.49c0-0.16,0.06-0.28,0.18-0.37c0.12-0.08,0.29-0.13,0.51-0.13h0.24h4.14h0.24l0.33,0.04
		c0.1,0.03,0.19,0.09,0.26,0.17c0.07,0.08,0.1,0.18,0.1,0.29c0,0.25-0.12,0.41-0.37,0.49c-0.2,0.07-0.32,0.11-0.36,0.13
		c-0.03,0.02-0.07,0.05-0.11,0.11c-0.07,0.1-0.11,0.26-0.11,0.47v7.78c0,0.53,0.01,0.89,0.04,1.1c0.03,0.21,0.08,0.39,0.17,0.56
		c0.08,0.15,0.17,0.27,0.27,0.33c0.1,0.07,0.29,0.15,0.57,0.23v1.22h-0.2c-0.8,0-1.47-0.07-2-0.21c-0.62-0.17-1.17-0.41-1.64-0.74
		c-0.47-0.33-0.8-0.7-1-1.1C93.48,10.67,93.38,10.04,93.38,9.21z M99.4,13.16v-1.22c0.62-0.08,1.13-0.33,1.55-0.76
		c0.47-0.49,0.71-1.19,0.71-2.11V3.03c0-0.85-0.32-1.44-0.97-1.77c-0.19-0.1-0.32-0.18-0.38-0.25c-0.06-0.07-0.09-0.17-0.09-0.31
		c0-0.16,0.06-0.27,0.18-0.34c0.12-0.07,0.31-0.1,0.58-0.1h2.27c0.19,0,0.32,0,0.38,0.01c0.07,0.01,0.13,0.03,0.19,0.07
		c0.16,0.09,0.24,0.22,0.24,0.38c0,0.14-0.05,0.25-0.15,0.34c-0.03,0.03-0.16,0.11-0.4,0.25c-0.27,0.15-0.49,0.38-0.64,0.68
		c-0.15,0.31-0.23,0.65-0.23,1.04v6.06c0,1.04-0.23,1.89-0.69,2.56c-0.33,0.5-0.81,0.89-1.44,1.19
		C100.2,12.99,99.83,13.1,99.4,13.16z"/>
</g>
</svg>
